<?xml version="1.0" encoding="utf-8"?>
<!-- Generator: Adobe Illustrator 28.0.0, SVG Export Plug-In . SVG Version: 6.00 Build 0)  -->
<svg version="1.1" id="Capa_1" xmlns="http://www.w3.org/2000/svg" xmlns:xlink="http://www.w3.org/1999/xlink" x="0px" y="0px"
	 viewBox="0 0 800 481.33" style="enable-background:new 0 0 800 481.33;" xml:space="preserve">
<style type="text/css">
	.st0{fill:#FFFFFF;}
	.st1{fill:#00F070;}
</style>
<g>
	<path class="st0" d="M620.66,303.24c-4.02,15.26-9.83,28.57-17.39,39.92c-7.69,11.54-16.92,20.47-27.68,26.82
		c-10.77,6.34-22.88,9.51-36.33,9.51c-13.46,0-25.66-3.26-36.62-9.8c-10.95-6.54-20.28-15.57-27.97-27.1
		c-7.69-11.54-13.65-25.18-17.88-40.94c-4.23-15.76-6.34-32.88-6.34-51.33s2.02-35.55,6.06-51.32c4.04-15.76,9.89-29.32,17.59-40.66
		c7.69-11.34,16.91-20.18,27.68-26.53c10.76-6.34,22.87-9.51,36.34-9.51c3.57,0,7.07,0.23,10.46,0.7V47.17
		c-0.03-0.8-0.04-1.6-0.04-2.4c0-0.82,0.01-1.62,0.04-2.43c-3.07-0.15-6.17-0.22-9.31-0.22c-26.92,0-51.43,5.38-73.53,16.14
		c-22.12,10.77-41.05,25.57-56.8,44.41c-15.77,18.84-27.97,41.05-36.62,66.61c-8.65,25.57-12.98,52.97-12.98,82.18
		c0,29.61,4.23,57,12.69,82.17c8.46,25.19,20.47,47.2,36.05,66.04c15.57,18.84,34.4,33.55,56.52,44.11
		c22.1,10.57,46.61,15.86,73.53,15.86c26.9,0,51.41-5.39,73.53-16.14c22.1-10.76,41.03-25.56,56.8-44.41
		c15.76-18.84,27.97-40.95,36.62-66.32c3.25-9.54,5.89-19.39,7.92-29.54H620.66z"/>
	<g>
		<path class="st1" d="M605.4,19.87c11.46,0,21.24,4.09,29.32,12.26c8.08,8.18,12.13,17.99,12.13,29.46
			c0,11.38-4.07,21.15-12.2,29.32c-8.13,8.18-17.88,12.26-29.26,12.26c-11.37,0-21.13-4.09-29.26-12.26
			c-8.13-8.17-12.2-17.95-12.2-29.32c0-11.46,4.04-21.28,12.13-29.46C584.16,23.95,593.94,19.87,605.4,19.87z M699.69,19.33h20.6
			l-122.42,191h-20.59L699.69,19.33z M605.07,40.13c-5.94,0-11.01,2.11-15.22,6.31c-4.21,4.21-6.31,9.28-6.31,15.21
			c0,5.85,2.12,10.85,6.38,15.02c4.25,4.16,9.3,6.24,15.15,6.24c5.94,0,11.01-2.08,15.21-6.24c4.21-4.16,6.31-9.17,6.31-15.02
			c0-6.02-2.08-11.12-6.25-15.28C616.18,42.21,611.09,40.13,605.07,40.13z M693.3,127.16c11.35,0,21.11,4.06,29.27,12.2
			c8.16,8.13,12.24,17.88,12.24,29.26c0,11.38-4.06,21.04-12.18,28.99c-8.12,7.95-17.9,11.93-29.34,11.93
			c-11.53,0-21.36-3.98-29.48-11.93c-8.12-7.95-12.17-17.61-12.17-28.99c0-11.46,4.08-21.24,12.24-29.32
			C672.05,131.2,681.86,127.16,693.3,127.16z M693.03,147.42c-5.85,0-10.83,2.08-14.95,6.25c-4.12,4.16-6.18,9.17-6.18,15.01
			c0,5.94,2.06,11.01,6.18,15.22c4.12,4.21,9.1,6.31,14.95,6.31c6.02,0,11.12-2.08,15.28-6.24c4.16-4.16,6.25-9.26,6.25-15.28
			c0-5.93-2.08-10.96-6.25-15.08C704.15,149.48,699.06,147.42,693.03,147.42z"/>
		<g>
			<path class="st1" d="M566.13,252.81v-0.18c0-17.69,14.26-32.03,33.26-32.03c19.01,0,33.09,14.17,33.09,31.85v0.18
				c0,17.69-14.26,32.03-33.26,32.03S566.13,270.5,566.13,252.81z M615.06,252.81v-0.18c0-8.89-6.42-16.63-15.84-16.63
				c-9.33,0-15.58,7.57-15.58,16.46v0.18c0,8.89,6.42,16.63,15.75,16.63C608.81,269.27,615.06,261.7,615.06,252.81z"/>
			<path class="st1" d="M641.37,221.84h49.28v14.96h-32.21v10.47h29.13v14.17h-29.13v22h-17.07V221.84z"/>
			<path class="st1" d="M698.39,221.84h49.28v14.96h-32.21v10.47h29.13v14.17h-29.13v22h-17.07V221.84z"/>
		</g>
	</g>
</g>
<g>
	<g>
		<path class="st0" d="M98.02,67.4c24.59-20.46,56.97-30.69,97.15-30.69c27.4,0,50.87,4.79,70.4,14.36
			c19.52,9.57,34.26,22.53,44.21,38.86c9.95,16.33,14.92,34.83,14.92,55.47c0,23.65-6.11,43.65-18.3,59.98
			c-12.21,16.33-26.75,27.31-43.65,32.95v2.25c21.77,6.75,38.76,18.78,50.97,36.04c12.2,17.27,18.3,39.42,18.3,66.45
			c0,22.53-5.16,42.62-15.49,60.26c-10.33,17.65-25.54,31.45-45.62,41.39c-20.09,9.95-44.21,14.93-72.37,14.93
			c-42.43,0-76.97-10.7-103.62-32.1c-26.66-21.4-40.74-52.94-42.24-94.61h76.59c0.75,18.4,7.04,33.14,18.87,44.21
			c11.83,11.08,28.06,16.61,48.72,16.61c19.15,0,33.88-5.35,44.21-16.05c10.32-10.7,15.49-24.49,15.49-41.39
			c0-22.53-7.14-38.67-21.4-48.43c-14.27-9.76-36.42-14.64-66.45-14.64h-16.33v-64.76h16.33c53.31,0,79.97-17.83,79.97-53.5
			c0-16.14-4.79-28.72-14.36-37.73c-9.57-9.01-23.37-13.52-41.39-13.52c-17.65,0-31.26,4.79-40.83,14.36
			c-9.57,9.57-15.12,21.68-16.61,36.32H58.31C60.19,116.87,73.42,87.87,98.02,67.4z"/>
	</g>
</g>
</svg>
