<?xml version="1.0" encoding="utf-8"?>
<!-- Generator: Adobe Illustrator 28.0.0, SVG Export Plug-In . SVG Version: 6.00 Build 0)  -->
<svg version="1.1" id="Capa_1" xmlns="http://www.w3.org/2000/svg" xmlns:xlink="http://www.w3.org/1999/xlink" x="0px" y="0px"
	 viewBox="0 0 800 481.33" style="enable-background:new 0 0 800 481.33;" xml:space="preserve">
<style type="text/css">
	.st0{fill:#FFFFFF;}
	.st1{fill:#FF00C2;}
</style>
<g>
	<path class="st0" d="M83,43.78h251.76v78.9H160.14l-4.68,70.71c8.18-1.94,16.36-3.6,24.55-4.97c8.18-1.36,17.92-2.05,29.22-2.05
		c20.25,0,39.08,2.54,56.49,7.6c17.4,5.07,32.56,12.86,45.51,23.38c12.94,10.52,23.14,24.06,30.59,40.62
		c7.45,16.56,11.18,36.53,11.18,59.9c0,21.82-3.73,41.49-11.18,59.03c-7.45,17.53-17.94,32.44-31.48,44.71
		c-13.53,12.27-29.97,21.72-49.31,28.34c-19.34,6.62-40.7,9.93-64.08,9.93c-33.12,0-61.95-5.41-86.49-16.25
		c-24.55-10.83-46.75-25.72-66.62-44.68l54.35-64.72c15.58,14.03,31.17,24.94,46.75,32.73c15.58,7.8,32.53,11.69,50.84,11.69
		c21.04,0,37.69-4.89,49.97-14.68c12.27-9.79,18.41-24.08,18.41-42.88c0-18.02-6.53-31.92-19.58-41.71
		c-13.06-9.79-30.68-14.68-52.89-14.68c-12.86,0-25.04,1.46-36.53,4.38c-11.5,2.92-22.12,6.53-31.85,10.81L71.31,245.4L83,43.78z"/>
	<path class="st0" d="M627.45,305.27c-4.08,15.47-9.96,28.95-17.63,40.45c-7.8,11.69-17.15,20.75-28.05,27.18
		c-10.91,6.43-23.19,9.64-36.82,9.64c-13.64,0-26-3.3-37.11-9.93c-11.1-6.62-20.56-15.78-28.35-27.47
		c-7.8-11.69-13.84-25.51-18.12-41.49c-4.29-15.97-6.43-33.32-6.43-52.02c0-18.7,2.05-36.03,6.14-52.01
		c4.09-15.97,10.03-29.71,17.82-41.2c7.79-11.49,17.14-20.45,28.05-26.88c10.9-6.43,23.18-9.64,36.82-9.64
		c3.62,0,7.16,0.24,10.6,0.71V45.77c-0.03-0.81-0.04-1.62-0.04-2.43c0-0.83,0.01-1.65,0.04-2.46c-3.11-0.15-6.26-0.22-9.44-0.22
		c-27.28,0-52.11,5.46-74.51,16.36c-22.41,10.91-41.6,25.91-57.56,45c-15.99,19.09-28.35,41.6-37.11,67.5
		c-8.77,25.91-13.15,53.67-13.15,83.28c0,30,4.29,57.76,12.86,83.27c8.57,25.53,20.75,47.83,36.53,66.92
		c15.78,19.09,34.86,34,57.27,44.71c22.4,10.71,47.24,16.07,74.51,16.07c27.26,0,52.1-5.46,74.51-16.36
		c22.4-10.9,41.58-25.91,57.56-45c15.97-19.09,28.35-41.5,37.11-67.21c3.3-9.67,5.97-19.65,8.03-29.93H627.45z"/>
	<g>
		<path class="st1" d="M611.98,18.1c11.62,0,21.52,4.14,29.71,12.43c8.19,8.29,12.29,18.23,12.29,29.85
			c0,11.53-4.12,21.43-12.36,29.71c-8.24,8.29-18.12,12.43-29.65,12.43c-11.53,0-21.41-4.14-29.65-12.43
			c-8.24-8.28-12.36-18.19-12.36-29.71c0-11.62,4.1-21.56,12.29-29.85C590.46,22.24,600.37,18.1,611.98,18.1z M707.54,17.56h20.87
			L604.35,211.11h-20.87L707.54,17.56z M611.65,38.63c-6.01,0-11.16,2.13-15.42,6.4c-4.26,4.26-6.39,9.4-6.39,15.42
			c0,5.93,2.15,11,6.46,15.22c4.31,4.22,9.43,6.33,15.35,6.33c6.01,0,11.15-2.11,15.42-6.33c4.26-4.22,6.4-9.29,6.4-15.22
			c0-6.1-2.11-11.27-6.33-15.48S617.75,38.63,611.65,38.63z M701.06,126.83c11.51,0,21.4,4.12,29.67,12.36
			c8.27,8.24,12.41,18.12,12.41,29.65c0,11.53-4.11,21.32-12.34,29.38c-8.23,8.06-18.14,12.09-29.73,12.09
			c-11.69,0-21.64-4.03-29.87-12.09c-8.23-8.06-12.34-17.85-12.34-29.38c0-11.62,4.13-21.52,12.4-29.71
			C679.53,130.93,689.46,126.83,701.06,126.83z M700.79,147.36c-5.93,0-10.97,2.11-15.15,6.33c-4.17,4.22-6.26,9.29-6.26,15.21
			c0,6.01,2.09,11.16,6.26,15.42c4.17,4.26,9.22,6.39,15.15,6.39c6.1,0,11.27-2.11,15.48-6.33c4.22-4.22,6.33-9.38,6.33-15.49
			c0-6.01-2.11-11.11-6.33-15.28C712.06,149.45,706.89,147.36,700.79,147.36z"/>
		<g>
			<path class="st1" d="M572.19,254.17v-0.18c0-17.92,14.45-32.46,33.71-32.46c19.26,0,33.53,14.36,33.53,32.28v0.18
				c0,17.92-14.45,32.46-33.71,32.46S572.19,272.09,572.19,254.17z M621.77,254.17v-0.18c0-9.01-6.51-16.85-16.05-16.85
				c-9.45,0-15.78,7.67-15.78,16.68v0.18c0,9.01,6.51,16.85,15.96,16.85C615.44,270.84,621.77,263.17,621.77,254.17z"/>
			<path class="st1" d="M648.43,222.78h49.94v15.16h-32.64v10.61h29.52v14.36h-29.52v22.29h-17.3V222.78z"/>
			<path class="st1" d="M706.22,222.78h49.94v15.16h-32.64v10.61h29.52v14.36h-29.52v22.29h-17.3V222.78z"/>
		</g>
	</g>
</g>
</svg>
