<?xml version="1.0" encoding="UTF-8"?>
<svg id="Capa_1" data-name="Capa 1" xmlns="http://www.w3.org/2000/svg" viewBox="0 0 524.08 769">
  <defs>
    <style>
      .cls-1 {
        fill: #ff00c2;
      }

      .cls-1, .cls-2 {
        stroke-width: 0px;
      }

      .cls-2 {
        fill: aqua;
      }
    </style>
  </defs>
  <path class="cls-2" d="m524.08,0H0v707.85l524.08,61.15V0Z"/>
  <path class="cls-1" d="m131.14,374.44c2.95-2.01,5.15-4.67,6.58-7.96,2.03-4.69,3.22-9.56,3.61-14.66.7-6.12,1.04-18.14,1.04-36.02v-70.3c0-18.99-.22-31.74-.72-38.27-.41-6.15-1.6-12.15-3.61-18-1.55-5.03-4.42-9.17-8.57-12.39-3.78-2.78-10.98-4.84-21.61-6.1l-16.36-1.94v212.57l27.89-3.31c4.19-.34,8.1-1.53,11.76-3.61Zm-17.56-29.93h-1.48v-139.1h1.48c2.44-.05,4.43.89,5.95,2.8,1.16,2.05,1.81,4.23,1.91,6.56.26,2.68.36,8.76.36,18.02v79.91c.31,8.56-.07,17.08-1.11,25.57-.29,1.77-1.11,3.24-2.45,4.42-1.35,1.18-2.9,1.77-4.69,1.82h.03Z"/>
  <path class="cls-1" d="m177.11,178.89l-22.13-2.59v197.43l22.13-2.59v-192.25Z"/>
  <path class="cls-1" d="m193.32,352.33c1.35,5.22,3.75,9.89,7.21,14.01.53.75,1.14,1.43,1.84,2.03.7.6,1.47,1.11,2.28,1.52.82.43,1.69.72,2.59.92.89.2,1.81.29,2.73.26.92-.03,1.82-.17,2.71-.43.89-.26,1.72-.61,2.52-1.07.78-.46,1.52-1.01,2.18-1.65.65-.65,1.23-1.36,1.7-2.15,2.74-4.06,4.65-8.47,5.73-13.26.84,5.11,1.23,7.67,2.06,12.75l13.91-1.65v-95.12l-24.19-.2v27.85h2.74v21.61c.15,5.74-.12,11.47-.87,17.18-.58,2.98-1.69,4.53-3.27,4.69-1.59.14-2.45-1.13-2.97-3.61-.65-5.39-.89-10.81-.72-16.25v-88.59c-.2-5.83.03-11.64.72-17.44.51-2.23,1.41-3.32,2.78-3.2,1.36.1,2.59,1.55,3,4.21.58,6.53.8,13.07.65,19.64v16.57l22.13.68v-7.64c.2-11.18-.44-22.31-1.96-33.39-1.18-7.57-3.97-14.47-8.35-20.75-1.77-2.83-4.06-5.17-6.85-6.99-2.8-1.82-5.85-2.98-9.15-3.46-1.59-.22-3.17-.19-4.76.09-1.59.27-3.1.78-4.53,1.5-1.43.73-2.73,1.65-3.89,2.76-1.14,1.13-2.11,2.39-2.9,3.78-4.28,6.6-6.8,13.81-7.55,21.61-.87,8.13-1.31,21.22-1.31,39.31v56.32c0,13.01.22,22.77.61,29.22.39,6.22,1.45,12.34,3.17,18.34Z"/>
  <path class="cls-1" d="m275.81,190.49l-22.16-2.61v174.25l22.13-2.64.03-169Z"/>
  <path class="cls-1" d="m298.19,356.87l22.09-2.59v-126.83l13.16.94v-30.99l-48.33-5.8v33.36l13.07.94v130.97Z"/>
  <path class="cls-1" d="m344.65,198.59c-3.82,51.38-7.59,102.77-11.32,154.17l22.89-2.69c.55-10.82.78-16.3,1.33-27.1l7.89-.58c.51,10.6.72,15.89,1.19,26.46l22.62-2.68c-4.31-48.04-8.54-95.97-12.65-143.82l-31.96-3.75Zm11.68,98.75v-.94c.58-13.53,2.03-34.66,4.26-62.71h1.79c1.13,24.72,2.23,45.72,3.36,62.39v.94l-9.41.32Z"/>
  <path class="cls-1" d="m419.43,315.58v-108.09l-22.13-2.59v140.51l35.56-4.18v-26.46l-13.43.8Z"/>
  <path class="cls-1" d="m154.3,417.18c-2.9-3.92-6.73-6.32-11.54-7.21-5.08-1.11-14.8-.75-29.18.94l-22.09,2.68v132.11l37.55,4.4c5.3.82,10.62.94,15.96.39,3.43-.48,6.41-1.89,8.95-4.21,2.69-2.81,4.38-6.14,5.05-9.99,1.24-8.8,1.74-17.66,1.43-26.54v-51.89c.2-9.41-.12-18.8-.97-28.18-.65-4.6-2.35-8.76-5.15-12.5Zm-23.17,88.49c0,9.61-.51,15.31-1.55,17.47-1.06,2.16-3.2,2.91-6.75,2.91h-2.2v-92.6h.51c2.42-.44,4.74-.17,6.99.84,1.45,1.01,2.27,2.39,2.49,4.14.46,4.11.63,8.23.51,12.36v54.87Z"/>
  <path class="cls-1" d="m185.43,402.77c-4.96,50.73-10.02,101.48-15.17,152.24l30.79,3.61c.72-11.28,1.07-16.94,1.76-28.25l10.82.78c.65,11.61.97,17.44,1.59,29.12l30.44,3.6c-5.59-55.47-11.28-110.92-17.05-166.34l-43.18,5.23Zm16.07,100.59v-.9c.77-13.69,2.64-35.56,5.73-66.87h1.77c1.55,26.49,3.07,49.08,4.53,67.16v1.01l-12.03-.39Z"/>
  <path class="cls-1" d="m275.28,461.14c-.58-11.83-2.97-34.88-7.21-68.29l-27.36,3.26c7.21,35.73,14.2,71.53,20.95,107.36v62.32l27.56,3.26v-64.86c7.38-38.83,14.57-77.68,21.61-116.55l-27.34,3.24c-3.78,28.28-6.56,51.53-8.22,70.27Z"/>
  <path class="cls-1" d="m357.04,452.84c-3.72-3.15-6.53-6.99-8.42-11.49-1.21-4.72-1.72-9.53-1.55-14.4-.15-3.84.31-7.6,1.36-11.28.94-2.56,2.3-3.89,4.07-4.02.82-.12,1.59.07,2.27.53.68.48,1.14,1.11,1.33,1.91.99,4.21,1.35,8.47,1.09,12.8v14.4l27.63-1.26v-7.96c.44-11.35-.44-22.59-2.66-33.72-1.65-6.48-5.25-11.57-10.81-15.27-2.93-1.89-6.09-3.19-9.49-3.89-3.41-.7-6.84-.77-10.26-.19-6.82.75-12.82,3.39-18.02,7.89-5.17,4.57-8.76,10.16-10.81,16.74-2.66,10.35-3.78,20.86-3.36,31.54-.17,8.17.63,16.26,2.39,24.24,1.16,5.3,3.15,10.28,5.98,14.92,4.53,6.2,9.44,12.12,14.69,17.73,5.28,5.51,9.92,11.51,13.91,18.02,1.88,3.6,2.78,11.13,2.78,22.62.17,3.97-.31,7.86-1.43,11.68-.97,2.56-2.45,3.78-4.43,3.6-.99-.07-1.86-.43-2.63-1.04-.77-.63-1.26-1.43-1.53-2.39-1.01-4.62-1.4-9.29-1.14-14.01v-23.42l-27.68-.89v12.17c-.24,10.89.63,21.7,2.64,32.42,1.7,7.77,5.4,14.44,11.06,20.03,5.61,5.73,12.41,9.05,20.39,9.99,3.36.51,6.68.38,9.99-.39,3.29-.78,6.34-2.13,9.12-4.07,5.57-3.95,9.26-9.22,11.06-15.82,2.3-10.38,3.26-20.86,2.88-31.48,0-19.79-1.74-34.16-5.17-43.03-3.41-8.86-12.03-20.25-25.26-33.19Z"/>
  <path class="cls-1" d="m403.71,582.48l26.71,3.14v-42.34l-26.71-1.91v41.12Z"/>
  <path class="cls-1" d="m406.01,531.82l22.09,1.35,4.65-159.66-31.38,3.61,4.64,154.7Z"/>
</svg>