<?xml version="1.0" encoding="UTF-8"?>
<svg id="Capa_1" data-name="Capa 1" xmlns="http://www.w3.org/2000/svg" viewBox="0 0 1139.74 137.32">
  <defs>
    <style>
      .cls-1 {
        fill: #ff8200;
      }

      .cls-1, .cls-2, .cls-3 {
        stroke-width: 0px;
      }

      .cls-2 {
        fill: #fff;
      }

      .cls-3 {
        fill: #fcfcfc;
      }
    </style>
  </defs>
  <g>
    <path class="cls-2" d="m326.72,71.62c-2.6,5.45-6.19,10.01-10.74,13.67-4.56,3.67-9.89,6.42-15.98,8.26-6.1,1.84-12.64,2.75-19.62,2.75h-20.78v37.29h-27.35V9.29h50.78c7.46,0,14.12,1.04,19.98,3.11,5.86,2.07,10.83,5.01,14.91,8.79,4.08,3.79,7.22,8.32,9.41,13.58,2.19,5.27,3.28,11.1,3.28,17.49v.35c0,7.22-1.3,13.56-3.91,19Zm-23.8-18.82c0-6.15-1.98-10.83-5.95-14.03-3.97-3.2-9.38-4.79-16.25-4.79h-21.13v38h21.66c6.87,0,12.19-1.8,15.98-5.41,3.79-3.61,5.68-8.08,5.68-13.41v-.35Z"/>
    <path class="cls-2" d="m420.52,133.59l-11.36-27.88h-52.56l-11.36,27.88h-27.88l53.27-125.19h25.21l53.27,125.19h-28.59Zm-37.65-92.34l-16.51,40.31h33.03l-16.52-40.31Z"/>
    <path class="cls-2" d="m561.84,137.32l-13.67-12.25c-5.32,3.44-11.07,6.07-17.22,7.9-6.16,1.83-12.73,2.75-19.71,2.75-9.59,0-18.41-1.69-26.46-5.06-8.05-3.37-15-7.93-20.86-13.67-5.86-5.74-10.42-12.49-13.67-20.24-3.26-7.75-4.88-16.07-4.88-24.95v-.35c0-8.88,1.65-17.19,4.97-24.95,3.31-7.75,7.9-14.56,13.76-20.42,5.86-5.86,12.84-10.48,20.95-13.85,8.11-3.37,16.96-5.06,26.55-5.06s18.41,1.69,26.46,5.06c8.05,3.38,15.01,7.94,20.87,13.67,5.86,5.74,10.42,12.49,13.67,20.24,3.25,7.75,4.88,16.07,4.88,24.95v.35c0,6.51-.95,12.79-2.84,18.82-1.9,6.04-4.62,11.66-8.17,16.87l12.79,10.83-17.4,19.36Zm-12.96-65.88c0-5.33-.92-10.36-2.75-15.1-1.84-4.73-4.44-8.88-7.82-12.43-3.37-3.55-7.37-6.36-11.99-8.44-4.62-2.07-9.65-3.11-15.1-3.11s-10.63,1.01-15.18,3.02c-4.56,2.01-8.46,4.79-11.72,8.35-3.26,3.55-5.8,7.67-7.63,12.34-1.84,4.68-2.75,9.68-2.75,15.01v.35c0,5.33.91,10.36,2.75,15.1,1.83,4.74,4.44,8.88,7.81,12.43,3.38,3.55,7.34,6.36,11.9,8.44,4.56,2.07,9.62,3.11,15.18,3.11s11.25-1.12,16.34-3.38l-20.24-17.22,17.4-19.53,20.42,18.47c2.25-4.97,3.38-10.65,3.38-17.05v-.35Z"/>
    <path class="cls-2" d="m696.16,104.12c-2.55,6.99-6.19,12.82-10.92,17.49-4.74,4.68-10.48,8.17-17.22,10.48s-14.27,3.46-22.55,3.46c-16.69,0-29.83-4.62-39.42-13.85-9.59-9.24-14.38-23.02-14.38-41.38V9.29h27.35v70.32c0,10.18,2.37,17.84,7.1,23,4.74,5.15,11.3,7.73,19.71,7.73s14.98-2.49,19.71-7.46c4.73-4.97,7.1-12.43,7.1-22.38V9.29h27.35v70.15c0,9.47-1.28,17.7-3.82,24.68Z"/>
    <path class="cls-2" d="m712.38,133.59V9.29h93.58v24.33h-66.59v25.22h58.6v24.33h-58.6v26.11h67.48v24.33h-94.47Z"/>
    <path class="cls-2" d="m884.43,34.51v99.09h-27.35V34.51h-37.83V9.29h103v25.22h-37.83Z"/>
    <path class="cls-2" d="m934.66,133.59V9.29h93.58v24.33h-66.59v25.22h58.6v24.33h-58.6v26.11h67.48v24.33h-94.47Z"/>
    <path class="cls-2" d="m1136.38,113.26c-2.24,4.79-5.35,8.82-9.35,12.07-4,3.26-8.77,5.74-14.32,7.46-5.55,1.71-11.69,2.58-18.44,2.58-9.47,0-18.77-1.63-27.88-4.88-9.12-3.26-17.4-8.26-24.86-15.01l16.16-19.35c5.68,4.62,11.51,8.29,17.49,11.01,5.98,2.72,12.52,4.08,19.62,4.08,5.68,0,10.09-1.03,13.23-3.11,3.14-2.07,4.7-4.94,4.7-8.61v-.35c0-1.78-.33-3.34-.98-4.71-.65-1.36-1.9-2.63-3.74-3.82-1.84-1.18-4.39-2.37-7.65-3.55-3.27-1.18-7.51-2.42-12.73-3.73-6.29-1.54-11.99-3.26-17.09-5.15-5.1-1.89-9.43-4.23-12.99-7.01-3.56-2.78-6.32-6.24-8.28-10.39-1.96-4.14-2.94-9.29-2.94-15.45v-.36c0-5.68,1.06-10.8,3.17-15.36,2.12-4.56,5.09-8.5,8.91-11.81,3.83-3.31,8.39-5.86,13.7-7.63,5.31-1.77,11.16-2.66,17.55-2.66,9.11,0,17.49,1.36,25.13,4.08,7.64,2.72,14.65,6.63,21.04,11.72l-14.21,20.6c-5.57-3.79-11.01-6.78-16.34-8.97-5.33-2.19-10.66-3.28-15.98-3.28s-9.32,1.04-11.99,3.11c-2.66,2.07-4,4.65-4,7.73v.35c0,2.02.39,3.76,1.16,5.24.77,1.48,2.16,2.81,4.18,3.99,2.02,1.19,4.78,2.31,8.28,3.38,3.5,1.07,7.92,2.31,13.27,3.73,6.29,1.66,11.9,3.52,16.83,5.59,4.92,2.07,9.08,4.56,12.46,7.46,3.38,2.9,5.94,6.3,7.66,10.21,1.72,3.91,2.58,8.58,2.58,14.03v.35c0,6.16-1.12,11.63-3.35,16.43Z"/>
  </g>
  <path class="cls-2" d="m32.91,35.61c-3.69,2.69-7.81,6.84-12.37,12.46L1.58,32.8c3.04-4.12,6.11-7.77,9.21-10.95,3.1-3.18,6.43-5.86,10-8.04,3.57-2.18,7.52-3.83,11.85-4.95,4.33-1.12,9.24-1.68,14.74-1.68,6.55,0,12.43.91,17.64,2.72,5.2,1.82,9.65,4.39,13.34,7.72,3.69,3.33,6.49,7.34,8.42,12.02,1.93,4.68,2.9,9.89,2.9,15.62,0,5.15-.67,9.74-2.02,13.78-1.35,4.04-3.33,7.87-5.97,11.49-2.63,3.63-6,7.23-10.09,10.79-4.1,3.57-8.84,7.46-14.22,11.67l-20.01,15.44h53.53v23.34H0v-21.37l40.89-33.46c3.86-3.15,7.14-5.98,9.83-8.5,2.69-2.51,4.88-4.91,6.58-7.18,1.69-2.28,2.92-4.5,3.69-6.66.76-2.16,1.14-4.52,1.14-7.09,0-5.25-1.52-9.22-4.56-11.91-3.04-2.69-7.02-4.03-11.93-4.03s-9.04,1.35-12.72,4.04Z"/>
  <path class="cls-3" d="m170.95,85.69c-1.21,4.61-2.97,8.62-5.25,12.05-2.32,3.48-5.11,6.18-8.35,8.09-3.25,1.91-6.91,2.87-10.97,2.87s-7.74-.98-11.05-2.96c-3.31-1.97-6.12-4.7-8.44-8.18-2.32-3.48-4.12-7.6-5.4-12.36-1.28-4.76-1.91-9.92-1.91-15.49s.61-10.73,1.83-15.49c1.22-4.76,2.99-8.85,5.31-12.27,2.32-3.42,5.1-6.09,8.35-8.01,3.25-1.91,6.9-2.87,10.97-2.87,1.08,0,2.13.07,3.16.21V8.4c0-.24-.01-.48-.01-.72s0-.49.01-.73c-.93-.04-1.86-.07-2.81-.07-8.12,0-15.52,1.62-22.19,4.87-6.67,3.25-12.39,7.72-17.14,13.4-4.76,5.69-8.44,12.39-11.05,20.1-2.61,7.72-3.92,15.99-3.92,24.8s1.28,17.2,3.83,24.8c2.55,7.6,6.18,14.25,10.88,19.93,4.7,5.69,10.38,10.13,17.06,13.31,6.67,3.19,14.07,4.79,22.19,4.79s15.52-1.63,22.19-4.87c6.67-3.25,12.38-7.72,17.14-13.4,4.76-5.68,8.44-12.36,11.05-20.02.98-2.88,1.78-5.85,2.39-8.91h-27.86Z"/>
  <g>
    <path class="cls-1" d="m166.34.16c3.46,0,6.41,1.23,8.85,3.7,2.44,2.47,3.66,5.43,3.66,8.89s-1.23,6.38-3.68,8.85c-2.45,2.47-5.4,3.7-8.83,3.7s-6.38-1.23-8.83-3.7c-2.45-2.47-3.68-5.42-3.68-8.85s1.22-6.42,3.66-8.89c2.44-2.47,5.39-3.7,8.85-3.7Zm28.46-.16h6.22l-36.95,57.64h-6.21L194.8,0Zm-28.56,6.28c-1.79,0-3.32.64-4.59,1.91-1.27,1.27-1.9,2.8-1.9,4.59s.64,3.28,1.92,4.53c1.28,1.26,2.81,1.88,4.57,1.88s3.32-.63,4.59-1.88c1.27-1.26,1.91-2.77,1.91-4.53s-.63-3.36-1.89-4.61c-1.26-1.26-2.79-1.88-4.61-1.88Zm26.63,26.27c3.43,0,6.37,1.23,8.84,3.68,2.46,2.45,3.7,5.4,3.7,8.83s-1.23,6.35-3.68,8.75c-2.45,2.4-5.4,3.6-8.86,3.6s-6.45-1.2-8.9-3.6c-2.45-2.4-3.67-5.32-3.67-8.75s1.23-6.41,3.69-8.85c2.46-2.44,5.42-3.66,8.88-3.66Zm-.08,6.11c-1.76,0-3.27.63-4.51,1.88-1.24,1.26-1.86,2.77-1.86,4.53s.62,3.32,1.86,4.59c1.24,1.27,2.75,1.9,4.51,1.9s3.36-.63,4.61-1.88,1.89-2.79,1.89-4.61-.63-3.31-1.89-4.55c-1.26-1.24-2.79-1.86-4.61-1.86Z"/>
    <g>
      <path class="cls-1" d="m154.49,70.47v-.05c0-5.34,4.3-9.67,10.04-9.67s9.99,4.28,9.99,9.61v.05c0,5.34-4.3,9.67-10.04,9.67s-9.99-4.28-9.99-9.61Zm14.77,0v-.05c0-2.68-1.94-5.02-4.78-5.02s-4.7,2.28-4.7,4.97v.05c0,2.68,1.94,5.02,4.75,5.02s4.73-2.28,4.73-4.97Z"/>
      <path class="cls-1" d="m177.19,61.12h14.87v4.51h-9.72v3.16h8.79v4.28h-8.79v6.64h-5.15v-18.59Z"/>
      <path class="cls-1" d="m194.4,61.12h14.87v4.51h-9.72v3.16h8.79v4.28h-8.79v6.64h-5.15v-18.59Z"/>
    </g>
  </g>
</svg>