<?xml version="1.0" encoding="UTF-8"?>
<svg id="Capa_1" data-name="Capa 1" xmlns="http://www.w3.org/2000/svg" viewBox="0 0 1053.51 133.59">
  <defs>
    <style>
      .cls-1 {
        fill: #ff00c2;
      }

      .cls-1, .cls-2 {
        stroke-width: 0px;
      }

      .cls-2 {
        fill: #fff;
      }
    </style>
  </defs>
  <g>
    <path class="cls-2" d="m239.2,7.8h53c31.27,0,51.41,16.08,51.41,43.46v.35c0,29.15-22.44,44.52-53.18,44.52h-16.96v35.34h-34.28V7.8Zm50.53,61.48c12.19,0,19.61-6.36,19.61-16.08v-.35c0-10.6-7.42-16.25-19.79-16.25h-16.08v32.69h16.25Z"/>
    <path class="cls-2" d="m388.49,6.91h33.04l52.65,124.56h-36.75l-9.01-22.08h-47.7l-8.83,22.08h-36.04L388.49,6.91Zm30.04,75.8l-13.78-35.16-13.96,35.16h27.74Z"/>
    <path class="cls-2" d="m475.07,113.1l19.08-22.79c12.19,9.72,25.79,14.84,40.11,14.84,9.19,0,14.13-3.18,14.13-8.48v-.35c0-5.12-4.06-7.95-20.85-11.84-26.32-6.01-46.64-13.43-46.64-38.87v-.35c0-22.97,18.2-39.58,47.88-39.58,21.02,0,37.46,5.65,50.88,16.43l-17.14,24.2c-11.31-7.95-23.67-12.19-34.63-12.19-8.3,0-12.37,3.53-12.37,7.95v.35c0,5.65,4.24,8.13,21.38,12.01,28.45,6.18,46.11,15.37,46.11,38.52v.35c0,25.26-19.96,40.28-50,40.28-21.91,0-42.76-6.89-57.95-20.49Z"/>
    <path class="cls-2" d="m639.73,6.91h33.04l52.65,124.56h-36.75l-9.01-22.08h-47.7l-8.83,22.08h-36.04l52.65-124.56Zm30.04,75.8l-13.78-35.16-13.96,35.16h27.74Z"/>
    <path class="cls-2" d="m727.19,112.74l22.08-20.85c6.01,7.24,11.66,11.48,19.26,11.48,8.66,0,14.13-5.83,14.13-17.31V7.8h34.1v78.45c0,15.55-3.89,26.5-12.19,34.81-8.13,8.13-19.79,12.54-33.92,12.54-21.55,0-34.81-9.01-43.46-20.85Z"/>
    <path class="cls-2" d="m837.08,7.8h99.47v29.15h-65.55v18.73h59.36v27.03h-59.36v19.61h66.43v29.15h-100.35V7.8Z"/>
    <path class="cls-2" d="m945.56,113.1l19.08-22.79c12.19,9.72,25.8,14.84,40.11,14.84,9.19,0,14.13-3.18,14.13-8.48v-.35c0-5.12-4.06-7.95-20.85-11.84-26.33-6.01-46.64-13.43-46.64-38.87v-.35c0-22.97,18.2-39.58,47.88-39.58,21.02,0,37.46,5.65,50.88,16.43l-17.14,24.2c-11.31-7.95-23.67-12.19-34.63-12.19-8.3,0-12.37,3.53-12.37,7.95v.35c0,5.65,4.24,8.13,21.38,12.01,28.44,6.18,46.11,15.37,46.11,38.52v.35c0,25.26-19.96,40.28-50,40.28-21.91,0-42.76-6.89-57.95-20.49Z"/>
  </g>
  <g>
    <path class="cls-2" d="m11.64,7.79h74.83v23.45h-51.9l-1.39,21.02c2.43-.58,4.86-1.07,7.3-1.48,2.43-.4,5.33-.61,8.69-.61,6.02,0,11.62.75,16.79,2.26,5.17,1.51,9.68,3.82,13.53,6.95,3.85,3.13,6.88,7.15,9.09,12.07,2.21,4.92,3.32,10.86,3.32,17.81,0,6.49-1.11,12.33-3.32,17.54-2.21,5.21-5.33,9.64-9.36,13.29-4.02,3.65-8.91,6.46-14.66,8.42-5.75,1.97-12.1,2.95-19.05,2.95-9.84,0-18.41-1.61-25.71-4.83-7.3-3.22-13.9-7.65-19.8-13.28l16.15-19.24c4.63,4.17,9.26,7.41,13.9,9.73,4.63,2.32,9.67,3.47,15.11,3.47,6.25,0,11.2-1.45,14.85-4.36,3.65-2.91,5.47-7.16,5.47-12.75s-1.94-9.49-5.82-12.4c-3.88-2.91-9.12-4.36-15.72-4.36-3.82,0-7.44.43-10.86,1.3-3.42.87-6.57,1.94-9.47,3.21l-15.46-10.25L11.64,7.79Z"/>
    <path class="cls-2" d="m173.47,85.52c-1.21,4.6-2.96,8.6-5.24,12.02-2.32,3.47-5.1,6.17-8.34,8.08-3.24,1.91-6.89,2.86-10.94,2.86s-7.73-.98-11.03-2.95c-3.3-1.97-6.11-4.69-8.43-8.16-2.32-3.47-4.11-7.58-5.38-12.33-1.27-4.75-1.91-9.9-1.91-15.46s.61-10.71,1.82-15.46c1.22-4.75,2.98-8.83,5.3-12.25,2.32-3.41,5.09-6.08,8.34-7.99,3.24-1.91,6.89-2.86,10.95-2.86,1.08,0,2.13.07,3.15.21V8.39c0-.24-.01-.48-.01-.72s0-.49.01-.73c-.93-.04-1.86-.07-2.8-.07-8.11,0-15.49,1.62-22.15,4.86-6.66,3.24-12.36,7.7-17.11,13.38-4.75,5.68-8.43,12.36-11.03,20.06-2.61,7.7-3.91,15.95-3.91,24.75s1.27,17.17,3.82,24.75c2.55,7.59,6.17,14.22,10.86,19.89,4.69,5.68,10.36,10.11,17.02,13.29,6.66,3.18,14.04,4.78,22.15,4.78s15.49-1.62,22.15-4.86c6.66-3.24,12.36-7.7,17.11-13.38,4.75-5.67,8.43-12.33,11.03-19.98.98-2.87,1.78-5.84,2.39-8.9h-27.81Z"/>
    <g>
      <path class="cls-1" d="m168.87.16c3.45,0,6.4,1.23,8.83,3.69,2.44,2.46,3.65,5.42,3.65,8.87s-1.22,6.37-3.67,8.83c-2.45,2.46-5.39,3.69-8.81,3.69s-6.36-1.23-8.81-3.69c-2.45-2.46-3.67-5.41-3.67-8.83s1.22-6.41,3.65-8.87c2.44-2.46,5.38-3.69,8.83-3.69Zm28.4-.16h6.2l-36.88,57.53h-6.2L197.27,0Zm-28.5,6.26c-1.79,0-3.32.63-4.58,1.9-1.27,1.27-1.9,2.79-1.9,4.58s.64,3.27,1.92,4.52c1.28,1.25,2.8,1.88,4.56,1.88s3.32-.63,4.58-1.88c1.27-1.25,1.9-2.76,1.9-4.52s-.63-3.35-1.88-4.6c-1.25-1.25-2.79-1.88-4.6-1.88Zm26.58,26.22c3.42,0,6.36,1.22,8.82,3.67,2.46,2.45,3.69,5.39,3.69,8.81s-1.22,6.34-3.67,8.73c-2.45,2.4-5.39,3.59-8.84,3.59s-6.43-1.2-8.88-3.59c-2.45-2.39-3.67-5.31-3.67-8.73s1.23-6.4,3.69-8.83c2.46-2.44,5.41-3.65,8.86-3.65Zm-.08,6.1c-1.76,0-3.26.63-4.5,1.88-1.24,1.25-1.86,2.76-1.86,4.52s.62,3.32,1.86,4.58c1.24,1.27,2.74,1.9,4.5,1.9s3.35-.63,4.6-1.88,1.88-2.79,1.88-4.6-.63-3.3-1.88-4.54c-1.25-1.24-2.79-1.86-4.6-1.86Z"/>
      <g>
        <path class="cls-1" d="m157.04,70.33v-.05c0-5.33,4.29-9.65,10.02-9.65s9.97,4.27,9.97,9.6v.05c0,5.33-4.29,9.65-10.02,9.65s-9.97-4.27-9.97-9.6Zm14.74,0v-.05c0-2.68-1.94-5.01-4.77-5.01s-4.69,2.28-4.69,4.96v.05c0,2.68,1.93,5.01,4.74,5.01s4.72-2.28,4.72-4.96Z"/>
        <path class="cls-1" d="m179.7,61h14.84v4.51h-9.7v3.15h8.77v4.27h-8.77v6.63h-5.14v-18.55Z"/>
        <path class="cls-1" d="m196.88,61h14.84v4.51h-9.7v3.15h8.77v4.27h-8.77v6.63h-5.14v-18.55Z"/>
      </g>
    </g>
  </g>
</svg>