<?xml version="1.0" encoding="UTF-8"?>
<svg id="Capa_1" data-name="Capa 1" xmlns="http://www.w3.org/2000/svg" viewBox="0 0 1090.47 144.24">
  <defs>
    <style>
      .cls-1 {
        fill: #fff;
      }

      .cls-1, .cls-2 {
        stroke-width: 0px;
      }

      .cls-2 {
        fill: #00f070;
      }
    </style>
  </defs>
  <g>
    <path class="cls-1" d="m356.36,118.77c-2.2,4.29-5.35,7.86-9.46,10.72-4.1,2.86-9.04,5-14.8,6.43-5.77,1.43-12.16,2.15-19.18,2.15h-59.4V12.99h57.97c12.84,0,22.92,2.92,30.23,8.76,7.31,5.84,10.97,13.7,10.97,23.59v.36c0,3.58-.44,6.73-1.33,9.47-.89,2.74-2.07,5.21-3.55,7.41-1.48,2.21-3.19,4.14-5.15,5.81-1.95,1.67-4.05,3.1-6.3,4.29,7.23,2.74,12.92,6.46,17.07,11.17,4.15,4.71,6.23,11.23,6.23,19.57v.36c0,5.72-1.1,10.72-3.3,15.01Zm-30.83-68.79c0-4.17-1.55-7.35-4.64-9.56-3.1-2.2-7.57-3.3-13.4-3.3h-27.16v26.45h25.37c6.07,0,10.9-1.04,14.47-3.13,3.58-2.09,5.36-5.45,5.36-10.1v-.36Zm6.97,50.03c0-4.17-1.61-7.47-4.82-9.92-3.22-2.44-8.4-3.66-15.55-3.66h-31.81v27.52h32.7c6.08,0,10.84-1.1,14.29-3.3,3.45-2.2,5.18-5.63,5.18-10.27v-.36Z"/>
    <path class="cls-1" d="m492.42,100.64c-3.34,7.8-7.95,14.65-13.85,20.55-5.9,5.9-12.93,10.54-21.09,13.94-8.16,3.39-17.06,5.09-26.71,5.09s-18.52-1.7-26.62-5.09c-8.1-3.39-15.1-7.98-20.99-13.76-5.9-5.78-10.48-12.57-13.76-20.37-3.28-7.8-4.91-16.17-4.91-25.11v-.36c0-8.93,1.67-17.3,5-25.11,3.33-7.8,7.95-14.65,13.85-20.55,5.9-5.9,12.92-10.54,21.09-13.94,8.16-3.39,17.06-5.09,26.71-5.09s18.52,1.7,26.62,5.09c8.1,3.4,15.1,7.98,21,13.76,5.9,5.78,10.48,12.57,13.76,20.37,3.27,7.8,4.91,16.17,4.91,25.11v.36c0,8.93-1.67,17.3-5,25.11Zm-23.76-25.11c0-5.36-.93-10.42-2.77-15.19-1.85-4.76-4.47-8.93-7.86-12.51-3.39-3.58-7.41-6.4-12.06-8.49-4.64-2.09-9.71-3.13-15.19-3.13s-10.69,1.01-15.28,3.04c-4.58,2.02-8.52,4.82-11.79,8.4-3.28,3.57-5.84,7.71-7.68,12.42-1.85,4.71-2.77,9.74-2.77,15.1v.36c0,5.36.92,10.43,2.77,15.19,1.84,4.77,4.47,8.93,7.86,12.51,3.4,3.57,7.39,6.4,11.97,8.49,4.58,2.09,9.68,3.13,15.28,3.13s10.54-1.01,15.19-3.04c4.64-2.02,8.61-4.83,11.88-8.4,3.28-3.58,5.84-7.71,7.69-12.42,1.84-4.71,2.77-9.74,2.77-15.1v-.36Z"/>
    <path class="cls-1" d="m619.82,100.19c-3.22,7.62-7.77,14.24-13.67,19.83-5.9,5.6-12.93,10.01-21.08,13.22-8.16,3.22-17.13,4.82-26.89,4.82h-48.78V12.99h48.78c9.76,0,18.73,1.58,26.89,4.74,8.16,3.16,15.19,7.53,21.08,13.13,5.9,5.6,10.46,12.18,13.67,19.75,3.22,7.56,4.82,15.75,4.82,24.57v.36c0,8.82-1.61,17.04-4.82,24.66Zm-23.94-24.66c0-5.48-.92-10.54-2.77-15.19-1.85-4.64-4.41-8.63-7.68-11.97-3.28-3.33-7.24-5.92-11.88-7.77-4.65-1.85-9.77-2.77-15.37-2.77h-21.26v75.41h21.26c5.6,0,10.72-.89,15.37-2.68,4.64-1.79,8.6-4.35,11.88-7.69,3.28-3.33,5.84-7.27,7.68-11.79,1.85-4.53,2.77-9.59,2.77-15.19v-.36Z"/>
    <path class="cls-1" d="m636.62,138.07V12.99h94.17v24.48h-67.01v25.37h58.96v24.48h-58.96v26.27h67.9v24.48h-95.06Z"/>
    <path class="cls-1" d="m834.51,134.41c-8.88,3.87-19.03,5.81-30.46,5.81-9.77,0-18.67-1.61-26.71-4.83-8.04-3.22-14.95-7.68-20.73-13.4-5.78-5.72-10.28-12.51-13.49-20.37-3.22-7.86-4.82-16.44-4.82-25.73v-.36c0-8.93,1.64-17.3,4.91-25.11,3.28-7.8,7.83-14.65,13.67-20.55,5.84-5.9,12.74-10.54,20.73-13.94,7.98-3.39,16.74-5.09,26.27-5.09,5.6,0,10.69.39,15.28,1.16,4.58.77,8.85,1.88,12.78,3.3,3.93,1.43,7.62,3.22,11.08,5.36,3.45,2.14,6.79,4.58,10.01,7.33l-17.33,20.9c-2.38-2.02-4.77-3.81-7.15-5.36-2.38-1.55-4.86-2.86-7.41-3.93-2.56-1.07-5.33-1.9-8.31-2.5-2.98-.6-6.25-.89-9.83-.89-5,0-9.68,1.04-14.03,3.13-4.35,2.09-8.16,4.9-11.44,8.42-3.28,3.52-5.84,7.64-7.68,12.36-1.85,4.72-2.77,9.76-2.77,15.13v.36c0,5.73.92,11.02,2.77,15.85,1.84,4.84,4.47,9.04,7.86,12.62,3.4,3.58,7.39,6.36,11.97,8.33,4.58,1.97,9.68,2.95,15.28,2.95,10.25,0,18.88-2.52,25.91-7.56v-17.99h-27.7v-23.77h54.32v54.32c-6.43,5.48-14.09,10.16-22.96,14.02Z"/>
    <path class="cls-1" d="m964.5,138.07l-11.44-28.05h-52.89l-11.44,28.05h-28.05l53.61-125.97h25.37l53.61,125.97h-28.77Zm-37.88-92.92l-16.62,40.56h33.23l-16.62-40.56Z"/>
    <path class="cls-1" d="m1087.1,117.61c-2.25,4.82-5.39,8.87-9.41,12.15-4.02,3.28-8.83,5.78-14.41,7.5-5.58,1.73-11.76,2.59-18.55,2.59-9.53,0-18.88-1.64-28.05-4.91-9.17-3.28-17.51-8.31-25.01-15.1l16.26-19.47c5.72,4.64,11.59,8.34,17.6,11.08,6.01,2.74,12.6,4.11,19.75,4.11,5.72,0,10.16-1.04,13.31-3.13,3.16-2.08,4.73-4.97,4.73-8.67v-.36c0-1.79-.33-3.37-.99-4.74-.66-1.37-1.91-2.65-3.76-3.84-1.85-1.19-4.42-2.38-7.7-3.58-3.29-1.19-7.55-2.44-12.81-3.75-6.33-1.55-12.06-3.28-17.2-5.18-5.14-1.9-9.49-4.26-13.08-7.06-3.58-2.8-6.36-6.28-8.33-10.45-1.97-4.17-2.96-9.35-2.96-15.55v-.36c0-5.72,1.06-10.87,3.19-15.45,2.13-4.58,5.12-8.55,8.97-11.88,3.85-3.33,8.44-5.9,13.78-7.68,5.34-1.79,11.23-2.68,17.66-2.68,9.17,0,17.6,1.37,25.28,4.11,7.69,2.74,14.74,6.67,21.17,11.79l-14.29,20.73c-5.6-3.81-11.08-6.82-16.44-9.03-5.36-2.2-10.72-3.3-16.08-3.3s-9.38,1.04-12.06,3.13c-2.68,2.09-4.02,4.68-4.02,7.77v.36c0,2.03.39,3.78,1.17,5.27.78,1.49,2.18,2.83,4.21,4.02,2.03,1.19,4.81,2.32,8.33,3.4,3.52,1.07,7.97,2.32,13.35,3.75,6.33,1.67,11.97,3.55,16.93,5.63,4.95,2.09,9.13,4.59,12.54,7.51,3.4,2.92,5.97,6.34,7.7,10.27,1.73,3.93,2.6,8.64,2.6,14.12v.36c0,6.2-1.12,11.7-3.37,16.53Z"/>
  </g>
  <g>
    <g>
      <path class="cls-1" d="m186.06,93c-1.32,5-3.22,9.36-5.7,13.08-2.52,3.78-5.54,6.71-9.07,8.79-3.53,2.08-7.49,3.12-11.9,3.12s-8.41-1.07-12-3.21c-3.59-2.14-6.64-5.1-9.16-8.88-2.52-3.78-4.47-8.25-5.86-13.41-1.39-5.16-2.08-10.77-2.08-16.81s.66-11.65,1.98-16.81c1.32-5.16,3.24-9.6,5.76-13.32,2.52-3.71,5.54-6.61,9.07-8.69,3.52-2.08,7.49-3.12,11.9-3.12,1.17,0,2.31.08,3.43.23V9.12c0-.26-.01-.52-.01-.79s0-.53.01-.79c-1.01-.05-2.02-.07-3.05-.07-8.82,0-16.85,1.76-24.09,5.29-7.24,3.53-13.45,8.38-18.61,14.55-5.17,6.17-9.16,13.45-12,21.82-2.83,8.38-4.25,17.35-4.25,26.92s1.39,18.67,4.16,26.92c2.77,8.25,6.71,15.46,11.81,21.63,5.1,6.17,11.27,10.99,18.51,14.45,7.24,3.46,15.27,5.2,24.09,5.2s16.84-1.77,24.09-5.29c7.24-3.52,13.44-8.37,18.61-14.55,5.16-6.17,9.16-13.41,12-21.73,1.07-3.13,1.93-6.35,2.59-9.68h-30.24Z"/>
      <g>
        <path class="cls-2" d="m181.06.17c3.75,0,6.96,1.34,9.61,4.02,2.65,2.68,3.97,5.89,3.97,9.65s-1.33,6.93-4,9.61c-2.66,2.68-5.86,4.02-9.58,4.02s-6.92-1.34-9.58-4.02c-2.66-2.68-4-5.88-4-9.61s1.32-6.97,3.97-9.65c2.65-2.68,5.85-4.02,9.61-4.02Zm30.89-.17h6.75l-40.1,62.57h-6.75L211.95,0Zm-31,6.81c-1.94,0-3.61.69-4.98,2.07-1.38,1.38-2.07,3.04-2.07,4.98s.7,3.56,2.09,4.92c1.39,1.36,3.05,2.05,4.96,2.05s3.61-.68,4.98-2.05c1.38-1.36,2.07-3,2.07-4.92s-.68-3.64-2.05-5.01c-1.36-1.36-3.03-2.05-5.01-2.05Zm28.9,28.51c3.72,0,6.92,1.33,9.59,4,2.67,2.66,4.01,5.86,4.01,9.58s-1.33,6.89-3.99,9.5c-2.66,2.61-5.86,3.91-9.61,3.91s-7-1.3-9.66-3.91c-2.66-2.6-3.99-5.77-3.99-9.5s1.34-6.96,4.01-9.61c2.67-2.65,5.88-3.97,9.63-3.97Zm-.09,6.64c-1.92,0-3.55.68-4.9,2.05-1.35,1.36-2.02,3-2.02,4.92s.67,3.61,2.02,4.98c1.35,1.38,2.98,2.07,4.9,2.07s3.64-.68,5.01-2.05c1.36-1.36,2.05-3.03,2.05-5.01s-.68-3.59-2.05-4.94c-1.36-1.35-3.03-2.02-5.01-2.02Z"/>
        <g>
          <path class="cls-2" d="m168.2,76.48v-.06c0-5.79,4.67-10.49,10.9-10.49s10.84,4.64,10.84,10.44v.06c0,5.79-4.67,10.49-10.9,10.49s-10.84-4.64-10.84-10.44Zm16.03,0v-.06c0-2.91-2.1-5.45-5.19-5.45s-5.1,2.48-5.1,5.39v.06c0,2.91,2.1,5.45,5.16,5.45s5.13-2.48,5.13-5.39Z"/>
          <path class="cls-2" d="m192.84,66.34h16.14v4.9h-10.55v3.43h9.54v4.64h-9.54v7.21h-5.59v-20.18Z"/>
          <path class="cls-2" d="m211.52,66.34h16.14v4.9h-10.55v3.43h9.54v4.64h-9.54v7.21h-5.59v-20.18Z"/>
        </g>
      </g>
    </g>
    <path class="cls-1" d="m14.85,15.75c8.05-6.7,18.66-10.05,31.82-10.05,8.98,0,16.66,1.57,23.06,4.7,6.39,3.14,11.22,7.38,14.48,12.73,3.26,5.35,4.89,11.41,4.89,18.17,0,7.75-2,14.3-6,19.65-4,5.35-8.76,8.95-14.3,10.79v.74c7.13,2.21,12.7,6.15,16.7,11.81,4,5.66,6,12.91,6,21.77,0,7.38-1.69,13.96-5.07,19.74-3.38,5.78-8.37,10.3-14.94,13.56-6.58,3.26-14.48,4.89-23.71,4.89-13.9,0-25.21-3.51-33.95-10.52C5.1,126.71.49,116.38,0,102.73h25.09c.24,6.03,2.31,10.86,6.18,14.48,3.87,3.63,9.19,5.44,15.96,5.44,6.27,0,11.1-1.75,14.48-5.26,3.38-3.5,5.07-8.02,5.07-13.56,0-7.38-2.34-12.67-7.01-15.87-4.68-3.2-11.93-4.8-21.77-4.8h-5.35v-21.22h5.35c17.46,0,26.2-5.84,26.2-17.53,0-5.29-1.57-9.41-4.7-12.36-3.14-2.95-7.66-4.43-13.56-4.43s-10.24,1.57-13.38,4.7c-3.14,3.14-4.95,7.1-5.44,11.9H1.84c.61-12.3,4.95-21.8,13.01-28.5Z"/>
  </g>
</svg>