<?xml version="1.0" encoding="utf-8"?>
<!-- Generator: Adobe Illustrator 27.8.1, SVG Export Plug-In . SVG Version: 6.00 Build 0)  -->
<svg version="1.1" id="Capa_1" xmlns="http://www.w3.org/2000/svg" xmlns:xlink="http://www.w3.org/1999/xlink" x="0px" y="0px"
	 viewBox="0 0 800 800" style="enable-background:new 0 0 800 800;" xml:space="preserve">
<style type="text/css">
	.st0{fill-rule:evenodd;clip-rule:evenodd;fill:#005BA2;}
	.st1{opacity:0.5;}
	.st2{opacity:0.3;}
</style>
<g>
	<g>
		<g>
			<path class="st0" d="M714.3,171.96l-0.18-0.02l-62.19,0v-35.2c0-13.68-11.56-25.25-25.25-25.25H521.01
				c-13.69,0-25.25,11.56-25.25,25.25v35.21l-62.35,0c-24.47,2.72-42.92,23.33-42.92,47.95v166.24v36.34v25.29
				c0,10.08,8.17,18.25,18.24,18.25c10.08,0,18.24-8.17,18.24-18.25v-61.62c0-0.02-0.01-0.05-0.01-0.07V219.92
				c0-6.49,5.28-11.78,11.78-11.78h270.2c6.49,0,11.78,5.29,11.78,11.78l0,390.3c0,6.49-5.28,11.78-11.78,11.78H693.4
				c-7.41-18.05-25.01-30.02-44.5-30.02c-19.48,0-37.08,11.97-44.5,30.02h-61.14c-7.41-18.05-25.01-30.02-44.5-30.02
				c-19.48,0-37.08,11.97-44.5,30.02h-15.53c-6.49,0-11.78-5.29-11.78-11.78v-21.78c0-0.02,0.01-0.05,0.01-0.07v-61.62
				c0-10.08-8.17-18.25-18.24-18.25c-10.08,0-18.24,8.17-18.24,18.25v43.54v18.08v21.85c0,26.62,21.65,48.27,48.27,48.27h15.55
				c7.41,18.05,25.01,30.02,44.5,30.02c19.48,0,37.08-11.97,44.5-30.02h61.14c7.41,18.05,25.01,30.02,44.5,30.02
				c19.48,0,37.08-11.97,44.5-30.02h15.53c26.61,0,48.27-21.65,48.27-48.27v-390.3C757.22,195.3,738.77,174.68,714.3,171.96z
				 M619.05,171.95l-90.4,0.01v-27.57h90.4V171.95z M498.79,652.01c-6.49,0-11.78-5.29-11.78-11.78c0-6.49,5.29-11.78,11.78-11.78
				s11.78,5.29,11.78,11.78C510.56,646.73,505.28,652.01,498.79,652.01z M648.9,652.01c-6.49,0-11.78-5.29-11.78-11.78
				c0-6.49,5.29-11.78,11.78-11.78c6.49,0,11.78,5.29,11.78,11.78C660.68,646.73,655.39,652.01,648.9,652.01z"/>
			<path class="st0" d="M666.46,336.79v-61.62c0-10.08-8.17-18.25-18.24-18.25c-10.08,0-18.24,8.17-18.24,18.25v61.62
				c0,10.08,8.17,18.25,18.24,18.25C658.29,355.04,666.46,346.87,666.46,336.79z"/>
		</g>
	</g>
	<g class="st1">
		<path class="st0" d="M453.21,111.51H347.53c-13.68,0-25.24,11.56-25.24,25.24v35.23h-62.37c-24.47,2.71-42.91,23.34-42.91,47.96
			v227.86c0,10.06,8.16,18.25,18.25,18.25c10.06,0,18.25-8.19,18.25-18.25v-61.64c0,0-0.04-0.04-0.04-0.07V219.93
			c0-6.51,5.3-11.78,11.78-11.78h89.44c1.87-13.28,6.77-25.57,14.01-36.18h-13.54v-27.58h44.85c8.93-4.57,18.8-7.61,29.34-8.78
			l2.01-0.22h27.84c0.18-7.61,1.72-14.85,4.39-21.55C460.42,112.35,456.9,111.51,453.21,111.51z M353.89,601.54
			c-8.08-6.07-18.07-9.58-28.61-9.58c-19.46,0-37.06,12-44.48,30.03h-15.55c-6.47,0-11.78-5.27-11.78-11.78v-21.77
			c0-0.04,0.04-0.07,0.04-0.07v-61.64c0-10.06-8.19-18.25-18.25-18.25c-10.1,0-18.25,8.19-18.25,18.25v83.48
			c0,26.63,21.66,48.29,48.29,48.29h15.55c7.39,18.03,24.98,30,44.48,30c19.2,0,36.62-11.67,44.19-29.3
			c-9.84-13.83-15.62-30.76-15.62-48.98V601.54z M325.32,652.02c-6.51,0-11.78-5.3-11.78-11.78c0-6.51,5.27-11.78,11.78-11.78
			c6.47,0,11.78,5.27,11.78,11.78C337.1,646.72,331.8,652.02,325.32,652.02z"/>
	</g>
	<g class="st2">
		<path class="st0" d="M278.98,111.51H173.3c-13.68,0-25.24,11.56-25.24,25.24v35.23H85.69c-24.47,2.71-42.91,23.34-42.91,47.96
			v227.86c0,10.06,8.16,18.25,18.25,18.25c10.06,0,18.25-8.19,18.25-18.25v-61.64c0,0-0.04-0.04-0.04-0.07V219.93
			c0-6.51,5.3-11.78,11.78-11.78h89.44c1.87-13.28,6.77-25.57,14.01-36.18h-13.54v-27.58h44.85c8.93-4.57,18.8-7.61,29.34-8.78
			l2.01-0.22h27.84c0.18-7.61,1.72-14.85,4.39-21.55C286.19,112.35,282.68,111.51,278.98,111.51z M179.67,601.54
			c-8.08-6.07-18.07-9.58-28.61-9.58c-19.46,0-37.06,12-44.48,30.03H91.03c-6.47,0-11.78-5.27-11.78-11.78v-21.77
			c0-0.04,0.04-0.07,0.04-0.07v-61.64c0-10.06-8.19-18.25-18.25-18.25c-10.1,0-18.25,8.19-18.25,18.25v83.48
			c0,26.63,21.66,48.29,48.29,48.29h15.55c7.39,18.03,24.98,30,44.48,30c19.2,0,36.62-11.67,44.19-29.3
			c-9.84-13.83-15.62-30.76-15.62-48.98V601.54z M151.1,652.02c-6.51,0-11.78-5.3-11.78-11.78c0-6.51,5.27-11.78,11.78-11.78
			c6.47,0,11.78,5.27,11.78,11.78C162.88,646.72,157.57,652.02,151.1,652.02z"/>
	</g>
</g>
</svg>
